PathFileType	4	(X/Y/Z)	Kaydara	
DataRate	CameraRate	NumFrames	NumMarkers	Units	OrigDataRate	OrigDataStartFrame	OrigNumFrames	
60.00	60.00	4	74	mm	60.00	837	195	
Frame#	Time	Y_rasi			Y_rpsi			Y_lpsi			Y_fneck			Y_bneck			Y_fhead			Y_rhead			Y_rshld			Y_relbtop			Y_relbext			Y_relblow			Y_rwrext			Y_rwrtop			Y_rwrlow			Y_lshld			Y_lelbext			Y_lelblow			Y_lelbtop			Y_lwrext			Y_lwrtop			Y_lwrlow			Y_rtopleg			Y_ltopleg			Y_rkneefr			Y_rkneebk			Y_rkneeis			Y_lkneefr			Y_lknssbk			Y_lkneeis			Y_rankfr			Y_rankis			Y_rankbk			Y_lankfr			Y_lankbk			Y_lankis			Y_lhead			Y_lasi			D_rpsi			D_lpsi			D_fneck			D_bneck			D_fhead			D_rhead			D_lhead			D_rshld			D_relbtop			D_relbext			D_relblow			D_rwrext			D_rwrtop			D_rwrlow			D_lshld			D_lelbext			D_lelblow			D_lelbtop			D_lwrext			D_lwrtop			D_lwrlow			D_rtopleg			D_ltopleg			D_rkneefr			D_rkneebk			D_rkneeis			D_lkneefr			D_lknssbk			D_lkneeis			D_rankfr			D_rankis			D_rankbk			D_lankfr			D_lankbk			D_lankis			D_lasi			D_rasi			
		X1	Y1	Z1	X2	Y2	Z2	X3	Y3	Z3	X4	Y4	Z4	X5	Y5	Z5	X6	Y6	Z6	X7	Y7	Z7	X8	Y8	Z8	X9	Y9	Z9	X10	Y10	Z10	X11	Y11	Z11	X12	Y12	Z12	X13	Y13	Z13	X14	Y14	Z14	X15	Y15	Z15	X16	Y16	Z16	X17	Y17	Z17	X18	Y18	Z18	X19	Y19	Z19	X20	Y20	Z20	X21	Y21	Z21	X22	Y22	Z22	X23	Y23	Z23	X24	Y24	Z24	X25	Y25	Z25	X26	Y26	Z26	X27	Y27	Z27	X28	Y28	Z28	X29	Y29	Z29	X30	Y30	Z30	X31	Y31	Z31	X32	Y32	Z32	X33	Y33	Z33	X34	Y34	Z34	X35	Y35	Z35	X36	Y36	Z36	X37	Y37	Z37	X38	Y38	Z38	X39	Y39	Z39	X40	Y40	Z40	X41	Y41	Z41	X42	Y42	Z42	X43	Y43	Z43	X44	Y44	Z44	X45	Y45	Z45	X46	Y46	Z46	X47	Y47	Z47	X48	Y48	Z48	X49	Y49	Z49	X50	Y50	Z50	X51	Y51	Z51	X52	Y52	Z52	X53	Y53	Z53	X54	Y54	Z54	X55	Y55	Z55	X56	Y56	Z56	X57	Y57	Z57	X58	Y58	Z58	X59	Y59	Z59	X60	Y60	Z60	X61	Y61	Z61	X62	Y62	Z62	X63	Y63	Z63	X64	Y64	Z64	X65	Y65	Z65	X66	Y66	Z66	X67	Y67	Z67	X68	Y68	Z68	X69	Y69	Z69	X70	Y70	Z70	X71	Y71	Z71	X72	Y72	Z72	X73	Y73	Z73	X74	Y74	Z74	

171	13.933	-517.93991	1088.99689	-154.63098	-420.43388	1073.36220	-309.28411	-260.06046	1051.16814	-134.74318	-422.15099	1419.44260	-132.10193	-316.56866	1481.34537	-107.10277	-509.64371	1592.21085	-195.89117	-333.28571	1566.48056	-182.34430	-451.40751	1425.68924	-298.22748	-474.58351	1114.44145	-364.33796	-443.42117	1132.83340	-411.55426	-392.12334	1107.42485	-370.51117	-526.78280	859.37248	-399.46564	-565.05013	877.51457	-401.36982	-574.62139	887.69035	-358.43639	-274.03959	1362.60712	58.37064	-186.74885	1054.21989	28.46912	-213.97707	1047.74170	-24.07467	-254.99905	1054.88380	51.55724	-240.93136	796.54022	17.80748	-257.04739	797.87971	58.47130	-301.52998	812.93297	43.24860	-521.73939	915.67467	-310.89325	-283.72440	895.05295	-39.10894	-616.57196	419.53850	-281.85791	-574.12498	457.94609	-350.71159	-524.94576	414.79816	-250.72973	-340.29217	470.79369	-82.33819	-256.24025	495.14843	-154.16473	-377.98004	473.08243	-171.15948	-628.23376	147.84843	-332.13741	-557.71286	133.21877	-335.36793	-591.55888	140.29802	-394.29161	-274.96237	128.65887	-161.11879	-252.34280	131.52712	-227.24476	-328.59974	128.34616	-204.25657	-412.08355	1561.43265	-47.80578	-412.72015	1063.30650	-30.91514	-929.23080	1174.92577	602.06833	-1066.28380	1189.61845	504.99901	-906.83273	1615.52734	476.29925	-1007.34169	1654.64661	541.50513	-867.46498	1816.30219	369.82441	-933.54866	1807.84698	535.73265	-1033.13095	1790.84991	420.88825	-819.20502	1566.29074	614.67625	-790.14633	1195.89287	595.88932	-740.84068	1207.28188	640.23567	-807.87613	1191.50108	679.33449	-700.55031	923.49190	564.13696	-679.69978	940.00359	530.52067	-714.45869	950.91705	498.53653	-1141.32591	1553.85071	405.44872	-1132.35847	1183.03802	336.05339	-1104.41277	1162.31926	405.95482	-1069.48639	1194.55658	335.32764	-1056.57059	942.93251	288.42239	-1034.09050	964.51797	254.94999	-995.19524	967.65854	282.34962	-816.56158	1037.50832	599.94816	-1081.45714	1032.49870	370.86781	-817.11426	557.32552	491.65512	-828.67012	559.86839	604.68479	-929.09027	549.06799	528.30395	-993.14514	469.11835	376.29547	-1084.33815	518.91167	423.01987	-1000.79590	502.08214	489.28722	-831.68671	192.94407	554.79622	-907.34940	187.64635	538.47313	-882.63542	183.96000	620.48645	-1051.43410	162.78172	411.95583	-1073.29300	155.83066	488.59211	-988.85506	163.70625	448.79074	-971.91780	1192.43538	358.11966	-811.05614	1184.15504	482.04548 
172	13.950	-518.35308	1089.06097	-154.34000	-421.79234	1073.58765	-309.25203	-260.44203	1051.19408	-135.52557	-422.41287	1419.54666	-131.65506	-316.85137	1481.29532	-106.95573	-510.07732	1592.18643	-195.02426	-333.14789	1566.54495	-182.88338	-452.42031	1426.15250	-297.61475	-476.32393	1115.00633	-363.86372	-445.52219	1133.40622	-411.21304	-393.93768	1107.82463	-370.62702	-530.06912	860.53680	-398.45634	-568.35445	878.89915	-400.11215	-577.46136	889.10973	-357.12017	-273.19065	1362.33917	58.08115	-185.41382	1054.39140	27.19398	-212.93116	1047.94151	-25.24064	-254.00881	1055.03571	50.45979	-238.98483	796.46843	16.32326	-254.67861	797.69691	57.09488	-299.15672	812.48756	41.95353	-522.73483	915.72342	-310.80063	-284.03431	895.03952	-39.48327	-616.86760	419.48879	-281.84404	-574.53773	457.92557	-350.73990	-525.19306	414.79996	-250.97023	-339.91699	470.70786	-82.73342	-256.31552	495.23232	-154.77049	-378.17005	473.09986	-171.38235	-628.30349	147.79227	-332.12399	-557.61112	133.31976	-335.48485	-591.63490	140.27976	-394.26292	-274.96155	128.68738	-161.21662	-252.40578	131.49066	-227.34169	-328.62984	128.33490	-204.30643	-411.82850	1561.62323	-47.69223	-412.61383	1063.18932	-31.00710	-928.65768	1174.92912	602.18296	-1066.64490	1189.72130	505.47890	-907.08565	1615.72021	476.03466	-1006.85051	1654.79675	542.06551	-868.97980	1815.66208	368.10349	-932.10449	1808.03513	535.36514	-1033.82088	1791.26266	422.27676	-818.49091	1566.33865	614.11465	-789.72870	1195.90744	595.37998	-740.18250	1207.23610	639.45446	-806.98982	1191.61362	678.92494	-700.51064	923.31367	563.51227	-679.82094	939.84428	529.63455	-714.74648	950.84572	497.66724	-1141.69113	1554.03229	406.51440	-1132.87308	1183.20457	336.91338	-1104.81201	1162.50633	406.75838	-1070.01099	1194.80217	335.97179	-1056.81648	943.30879	288.73449	-1034.44817	964.98207	255.27130	-995.55550	968.14377	282.37047	-816.15204	1037.46300	599.49169	-1082.19681	1032.54898	371.83372	-816.67503	557.32296	491.04359	-827.54921	560.13374	604.00162	-928.61267	549.12292	527.88311	-993.52814	469.19830	376.41533	-1084.51828	518.91666	423.69144	-1000.71220	501.99234	489.42459	-831.48834	192.90707	554.52820	-907.21771	187.70754	538.36269	-882.36359	184.09046	620.27115	-1051.58157	162.81713	412.12578	-1073.28690	155.77227	488.75801	-988.87459	163.73999	448.77750	-972.77252	1192.46788	358.56064	-811.39603	1184.01871	481.92650 
173	13.967	-518.86864	1089.02878	-154.06897	-423.33267	1073.70949	-309.08569	-260.75394	1051.24916	-136.32467	-422.66228	1419.61700	-131.18235	-316.85297	1481.29333	-107.04277	-510.52387	1592.27310	-193.96828	-334.25774	1566.58997	-181.84462	-453.60283	1426.54770	-296.92081	-478.14796	1115.49232	-363.36403	-447.46609	1133.93944	-410.95966	-395.67375	1108.27255	-370.80975	-532.98687	861.53694	-397.50271	-571.21315	879.98848	-398.83015	-579.87305	890.23102	-355.76439	-272.57975	1362.14584	57.89422	-184.19777	1054.46938	25.90247	-212.04712	1048.01476	-26.33716	-249.30830	1053.34396	50.74414	-237.22881	796.62857	14.83725	-252.98996	797.64481	55.81319	-297.09438	812.53311	41.34576	-523.62488	915.83717	-310.71396	-283.77844	895.12932	-40.50159	-617.19749	419.38969	-281.81606	-575.02369	457.90962	-350.70152	-525.43964	414.82677	-251.07763	-339.44923	470.58109	-83.14826	-256.35983	495.29186	-155.35131	-378.20938	473.02586	-171.62817	-628.33508	147.71260	-332.06844	-557.62848	133.37413	-335.49053	-591.71700	140.25675	-394.23347	-275.28004	128.84725	-161.07552	-252.45602	131.47344	-227.48371	-328.64304	128.29816	-204.34641	-411.40491	1562.16217	-47.54046	-412.58614	1063.11752	-31.20931	-928.23990	1174.89914	602.45983	-1066.94801	1189.85069	505.93517	-907.35809	1615.78934	475.65044	-1006.41006	1654.92340	542.66876	-870.42519	1814.79538	366.72009	-930.53345	1808.04993	534.94160	-1034.42368	1791.62613	423.65742	-817.62238	1566.32294	613.32703	-789.35944	1195.88440	594.84264	-739.40216	1207.30797	638.56487	-806.21483	1191.61850	678.46771	-700.44815	923.23532	562.82967	-679.91631	939.74045	528.50517	-714.97543	950.75829	496.86043	-1141.99951	1554.11896	407.64912	-1133.52760	1183.35800	337.89433	-1105.15549	1162.64145	407.58224	-1070.68420	1194.96292	336.68549	-1057.35069	943.63762	289.27612	-1035.07980	965.34203	255.72809	-995.97435	968.59497	282.72873	-815.57632	1037.51938	598.79089	-1082.76505	1032.59827	372.94044	-816.53938	557.32018	490.91087	-827.18124	560.15511	603.77556	-928.33199	549.13582	527.86079	-993.94058	469.25419	376.56315	-1084.74205	518.91853	424.18991	-999.16824	501.10573	489.49650	-831.35246	192.90842	554.41963	-907.16156	187.73146	538.38116	-882.04941	184.16403	620.21473	-1051.71219	162.85286	412.29282	-1073.25745	155.70562	488.97144	-988.94730	163.76888	448.78708	-973.45802	1192.51236	359.08546	-811.57639	1183.98361	481.49071 
174	13.983	-519.46110	1089.07631	-153.83513	-424.42871	1074.01466	-309.27404	-261.15705	1051.23657	-137.16856	-422.76398	1419.61380	-130.89669	-316.62798	1481.32950	-107.41632	-511.01929	1592.41226	-192.90680	-334.61304	1566.60263	-182.13909	-454.85310	1426.89728	-296.32257	-479.64733	1116.09924	-362.78652	-449.38210	1134.42299	-410.65651	-397.33280	1108.66325	-370.90912	-535.51289	862.36862	-396.56990	-573.65200	880.92957	-397.64107	-581.91933	891.23436	-354.37153	-271.87426	1361.92825	57.54176	-183.09191	1054.34380	24.51953	-211.28633	1047.99446	-27.49145	-248.26330	1053.29376	49.82873	-236.09167	796.47682	13.60172	-251.62579	797.50023	54.47595	-296.25443	812.32208	39.95667	-524.49986	915.95337	-310.68565	-284.31295	895.07553	-40.70750	-617.42836	419.23477	-281.70115	-575.50797	457.86640	-350.66933	-525.64873	414.83700	-251.12200	-339.37607	470.60982	-83.63367	-256.37524	495.36137	-156.09240	-378.04157	472.87712	-171.93085	-628.35472	147.63055	-331.96606	-557.67529	133.35709	-335.46310	-591.79848	140.23459	-394.14604	-274.97475	128.75640	-161.32572	-252.52529	131.43142	-227.60662	-328.66501	128.28150	-204.39344	-410.97347	1562.12524	-45.83654	-412.50332	1063.02734	-31.44418	-927.48238	1174.95110	602.68845	-1067.17102	1190.02716	506.33881	-907.53914	1615.58960	475.24467	-1006.03554	1654.96414	543.26691	-871.59927	1814.05487	365.56667	-929.27567	1807.91351	534.74495	-1035.04242	1791.89468	425.08545	-817.00638	1566.33545	612.72434	-789.02275	1195.85983	594.32533	-738.54057	1207.30675	637.63103	-805.09186	1191.78368	677.92656	-700.25780	922.97249	561.76723	-679.98657	939.66751	527.39799	-715.19829	950.71945	496.00616	-1142.48299	1554.20639	408.85952	-1134.32655	1183.35785	338.93749	-1105.71510	1162.73262	408.53718	-1071.41830	1195.07553	337.44602	-1057.91389	943.79333	289.86561	-1035.85854	965.55779	256.16507	-996.52412	968.86444	283.66449	-815.13657	1037.69592	597.27566	-1083.41393	1032.65480	373.95485	-816.65802	557.26231	490.81913	-826.96754	560.21297	603.85616	-928.36754	549.15688	528.27370	-994.34410	469.29409	376.63658	-1084.98657	518.92673	424.74716	-999.38965	501.15757	489.77123	-831.33858	192.92440	554.39507	-907.16530	187.76651	538.47321	-881.93413	184.16159	620.27012	-1051.85791	162.86022	412.42649	-1073.26530	155.68140	489.14536	-988.97163	163.77663	448.72452	-974.32777	1192.56012	359.57531	-811.67175	1184.00414	480.98011 
